<svg id="Camada_1" data-name="Camada 1" xmlns="http://www.w3.org/2000/svg" xmlns:xlink="http://www.w3.org/1999/xlink" viewBox="0 0 1663.31 300"><defs><linearGradient id="Gradiente_sem_nome_47" x1="58.35" y1="192.71" x2="8.21" y2="105.88" gradientUnits="userSpaceOnUse"><stop offset="0" stop-color="#8b93c9" stop-opacity="0.5"/><stop offset="0.66" stop-color="#604c8b"/><stop offset="1" stop-color="#282250"/></linearGradient><linearGradient id="Gradiente_sem_nome_47-2" x1="150.55" y1="192.65" x2="101" y2="106.83" xlink:href="#Gradiente_sem_nome_47"/><linearGradient id="Gradiente_sem_nome_47-3" x1="254.51" y1="202.13" x2="191.62" y2="93.2" xlink:href="#Gradiente_sem_nome_47"/><linearGradient id="Gradiente_sem_nome_47-4" x1="402.77" y1="222.06" x2="332.5" y2="100.35" xlink:href="#Gradiente_sem_nome_47"/><linearGradient id="Gradiente_sem_nome_47-5" x1="507.06" y1="203.06" x2="450.33" y2="104.79" xlink:href="#Gradiente_sem_nome_47"/><linearGradient id="Gradiente_sem_nome_47-6" x1="596.5" y1="182.07" x2="547.16" y2="96.62" xlink:href="#Gradiente_sem_nome_47"/><linearGradient id="Gradiente_sem_nome_47-7" x1="1089.81" y1="222.06" x2="1019.54" y2="100.35" xlink:href="#Gradiente_sem_nome_47"/><linearGradient id="Gradiente_sem_nome_47-8" x1="1194.81" y1="192.65" x2="1145.27" y2="106.83" xlink:href="#Gradiente_sem_nome_47"/><linearGradient id="Gradiente_sem_nome_47-9" x1="1276.51" y1="182.07" x2="1227.17" y2="96.62" xlink:href="#Gradiente_sem_nome_47"/><linearGradient id="Gradiente_sem_nome_47-10" x1="1354.01" y1="211.27" x2="1277.86" y2="79.37" xlink:href="#Gradiente_sem_nome_47"/><linearGradient id="Gradiente_sem_nome_47-11" x1="1429.87" y1="192.65" x2="1380.33" y2="106.83" xlink:href="#Gradiente_sem_nome_47"/><linearGradient id="Gradiente_sem_nome_47-12" x1="1504.67" y1="185.88" x2="1441.24" y2="76" xlink:href="#Gradiente_sem_nome_47"/><linearGradient id="Gradiente_sem_nome_47-13" x1="1573.09" y1="184.3" x2="1514.46" y2="82.76" xlink:href="#Gradiente_sem_nome_47"/><linearGradient id="Gradiente_sem_nome_47-14" x1="1643.59" y1="191.91" x2="1592.94" y2="104.18" xlink:href="#Gradiente_sem_nome_47"/><linearGradient id="Gradiente_sem_nome_47-15" x1="906.81" y1="248.83" x2="751.53" y2="-20.12" xlink:href="#Gradiente_sem_nome_47"/><linearGradient id="Gradiente_sem_nome_47-16" x1="826.13" y1="245.38" x2="710.67" y2="45.4" xlink:href="#Gradiente_sem_nome_47"/><linearGradient id="Gradiente_sem_nome_47-17" x1="835.33" y1="173.36" x2="773.31" y2="65.94" xlink:href="#Gradiente_sem_nome_47"/><linearGradient id="Gradiente_sem_nome_47-18" x1="900.71" y1="202.63" x2="824.79" y2="71.13" xlink:href="#Gradiente_sem_nome_47"/></defs><path d="M41.6,104.7a15.1,15.1,0,0,0-4.25.58,9.67,9.67,0,0,0-3.56,1.91,8.92,8.92,0,0,0-2.44,3.32,11.61,11.61,0,0,0-.88,4.73,12.68,12.68,0,0,0,2.78,7.57,65.59,65.59,0,0,0,6.94,7.81q4.14,4.06,9,8.4a99.58,99.58,0,0,1,9,9.18,52.15,52.15,0,0,1,6.94,10.3,25.58,25.58,0,0,1,2.78,11.72,31,31,0,0,1-2.39,12.5A25.59,25.59,0,0,1,58.64,192a30.33,30.33,0,0,1-10.74,5.81,46.26,46.26,0,0,1-14,2,36.94,36.94,0,0,1-12.21-1.9A43.85,43.85,0,0,1,12,193.22a41.66,41.66,0,0,1-7.27-5.91A39.62,39.62,0,0,1,0,181.65l3.42-2.44a33.62,33.62,0,0,0,3.22,3.17A31.65,31.65,0,0,0,11,185.56,25.75,25.75,0,0,0,16.11,188a17.22,17.22,0,0,0,5.57.93q7,0,11.52-3.37t4.5-10a14.6,14.6,0,0,0-2.45-7.67,58.86,58.86,0,0,0-6.15-8.15q-3.71-4.2-8-8.69a119.37,119.37,0,0,1-8-9.28,54.7,54.7,0,0,1-6.16-9.87A24.14,24.14,0,0,1,4.49,121.3,22.18,22.18,0,0,1,7,110.56a22.69,22.69,0,0,1,6.64-7.62A29.74,29.74,0,0,1,23.1,98.4a39.88,39.88,0,0,1,11-1.52A55.48,55.48,0,0,1,46,98.06a29.23,29.23,0,0,1,9.22,3.56,17.21,17.21,0,0,1,6,6,16.41,16.41,0,0,1,2.1,8.39,9.35,9.35,0,0,1-2.44,6.45A8.71,8.71,0,0,1,54,125.2q-4.2,0-6.39-1.8a6,6,0,0,1-2.2-4.93,4.71,4.71,0,0,1,1-3.23,9,9,0,0,1,2.29-1.9c.85-.49,1.61-.91,2.3-1.27a1.6,1.6,0,0,0,1-1.42q0-2.73-2.93-4.34A15.44,15.44,0,0,0,41.6,104.7Z" style="fill:url(#Gradiente_sem_nome_47)"/><path d="M111.23,153.43a27.66,27.66,0,0,0,.93,6.78,40.63,40.63,0,0,0,2.68,7.38,39.53,39.53,0,0,0,4.35,7.08,33.51,33.51,0,0,0,6,6,28.22,28.22,0,0,0,7.47,4.2,25.06,25.06,0,0,0,9,1.56,24.18,24.18,0,0,0,6.35-.78,24.72,24.72,0,0,0,5.47-2.15,35.07,35.07,0,0,0,4.88-3.17c1.56-1.2,3.13-2.49,4.69-3.86l2.44,2.35a67.68,67.68,0,0,1-5.76,6.64,47,47,0,0,1-8.5,6.78,48.84,48.84,0,0,1-11.62,5.28,50.18,50.18,0,0,1-15.14,2.1,46.06,46.06,0,0,1-16.55-3.08,41.17,41.17,0,0,1-14.31-9.23,45.37,45.37,0,0,1-10-15.33,56.55,56.55,0,0,1-3.75-21.48A56,56,0,0,1,82,134.19a52.46,52.46,0,0,1,6.1-13.38,50.13,50.13,0,0,1,9-10.45,56.07,56.07,0,0,1,10.79-7.47,53,53,0,0,1,11.57-4.49,47.22,47.22,0,0,1,24,0,28,28,0,0,1,8.93,4.2,17.41,17.41,0,0,1,5.33,6.1,15.9,15.9,0,0,1,1.75,7.27,13.85,13.85,0,0,1-2.63,8.26,24.48,24.48,0,0,1-7,6.39Zm19.63-19.83a15.33,15.33,0,0,0,2.1-1.51,5.62,5.62,0,0,0,1.32-1.76,9.49,9.49,0,0,0,.73-2.54,24.6,24.6,0,0,0,.24-3.76,31.61,31.61,0,0,0-.53-5.42,21.67,21.67,0,0,0-1.81-5.61,14,14,0,0,0-3.22-4.4,6.78,6.78,0,0,0-4.69-1.76,9,9,0,0,0-6,2.1,16.45,16.45,0,0,0-4.1,5.42,34.3,34.3,0,0,0-2.54,7.57,82.8,82.8,0,0,0-1.41,8.55c-.33,2.86-.52,5.61-.59,8.25s-.1,4.87-.1,6.69Z" style="fill:url(#Gradiente_sem_nome_47-2)"/><path d="M264,181.26c0,.58,0,1.22.09,1.9a6.8,6.8,0,0,0,.49,2,3.58,3.58,0,0,0,1.17,1.51,3.7,3.7,0,0,0,2.25.59,4.83,4.83,0,0,0,3.32-1.32c1-.88,1.89-1.78,2.73-2.69l2.35,2q-1.47,2.06-3.66,4.54a32,32,0,0,1-5.33,4.74,30.67,30.67,0,0,1-7.13,3.76,25.5,25.5,0,0,1-9.08,1.51,22.41,22.41,0,0,1-7.47-1.12,16.64,16.64,0,0,1-5.37-3,11.89,11.89,0,0,1-3.27-4.49,14.15,14.15,0,0,1-1.08-5.52v-4.39a75.63,75.63,0,0,1-10.25,9.28q-2.34,1.76-5,3.41a49,49,0,0,1-5.47,3,33.82,33.82,0,0,1-5.86,2.1,24.15,24.15,0,0,1-6,.78,21.93,21.93,0,0,1-10-2.1,18.58,18.58,0,0,1-6.69-5.51,22.93,22.93,0,0,1-3.71-7.72,32.56,32.56,0,0,1-1.17-8.59V115.44c0-.59,0-1.22-.1-1.91a6.81,6.81,0,0,0-.49-2,3.58,3.58,0,0,0-1.17-1.51,3.7,3.7,0,0,0-2.25-.59,4.89,4.89,0,0,0-3.27,1.32,26.26,26.26,0,0,0-2.69,2.69l-2.44-2.06c1-1.36,2.2-2.88,3.67-4.54a31.44,31.44,0,0,1,5.32-4.73,30.25,30.25,0,0,1,7.18-3.76,25.61,25.61,0,0,1,9-1.52A22.84,22.84,0,0,1,200.1,98a15.81,15.81,0,0,1,5.37,3,12.12,12.12,0,0,1,3.22,4.5,14.14,14.14,0,0,1,1.08,5.51v65.24a9.11,9.11,0,0,0,.44,2.78,8.8,8.8,0,0,0,1.27,2.59,6.45,6.45,0,0,0,2.09,1.9,6,6,0,0,0,3,.74,12.22,12.22,0,0,0,5.67-1.47,27.17,27.17,0,0,0,5.17-3.47,39.23,39.23,0,0,0,4.05-3.95c1.14-1.3,2-2.28,2.49-2.93v-57c0-.59,0-1.22-.09-1.91a6.81,6.81,0,0,0-.49-2,3.58,3.58,0,0,0-1.17-1.51,3.7,3.7,0,0,0-2.25-.59,4.89,4.89,0,0,0-3.27,1.32,26.26,26.26,0,0,0-2.69,2.69l-2.44-2.06c1-1.36,2.2-2.88,3.66-4.54a31.92,31.92,0,0,1,5.33-4.73,30.37,30.37,0,0,1,7.17-3.76,25.7,25.7,0,0,1,9-1.52A22.84,22.84,0,0,1,254.3,98a15.81,15.81,0,0,1,5.37,3,12.24,12.24,0,0,1,3.22,4.5A14.14,14.14,0,0,1,264,111Z" style="fill:url(#Gradiente_sem_nome_47-3)"/><path d="M335.84,114.07a9.06,9.06,0,0,0-1.32-4.93,4.83,4.83,0,0,0-4.44-2.1,6.26,6.26,0,0,0-2.83.59,14.92,14.92,0,0,0-2.54,1.66l-2-2.45a55.13,55.13,0,0,1,5-3.66,38.77,38.77,0,0,1,6-3.17,43.74,43.74,0,0,1,6.94-2.25,34,34,0,0,1,7.81-.88A18.74,18.74,0,0,1,356,98.25a19.07,19.07,0,0,1,5.22,3.27,14.31,14.31,0,0,1,3.18,4,12,12,0,0,1,1.27,3.56,26.83,26.83,0,0,1,4.63-5,31.26,31.26,0,0,1,5.86-3.86,32,32,0,0,1,6.74-2.49,32.22,32.22,0,0,1,21.54,2.35,30,30,0,0,1,10.88,9.57,47.23,47.23,0,0,1,7,15.72,86.83,86.83,0,0,1,2.44,21.68q0,14.26-3,24.27a50.8,50.8,0,0,1-7.81,16.35,29.23,29.23,0,0,1-23.69,12.11,37.23,37.23,0,0,1-9.42-1.07,32.87,32.87,0,0,1-7-2.64,29.7,29.7,0,0,1-4.88-3.17c-1.31-1.08-2.35-2-3.13-2.69V237.9a14.43,14.43,0,0,1-.39,3,7.35,7.35,0,0,1-1.9,3.37,12.27,12.27,0,0,1-4.5,2.78,22.88,22.88,0,0,1-8.15,1.17,22.09,22.09,0,0,1-8.15-1.22,12.47,12.47,0,0,1-4.55-2.93,7.71,7.71,0,0,1-1.95-3.42,13,13,0,0,1-.39-2.78Zm30,62.21a10.12,10.12,0,0,0,.68,2.73,16.43,16.43,0,0,0,2.15,4,15.81,15.81,0,0,0,3.76,3.66A10.14,10.14,0,0,0,385.35,185a24.93,24.93,0,0,0,5-8.89,61.77,61.77,0,0,0,2.83-13.08,136.1,136.1,0,0,0,.88-16,117.52,117.52,0,0,0-1.12-17.68,42.34,42.34,0,0,0-3.27-11.67,15.71,15.71,0,0,0-5.13-6.44,11.65,11.65,0,0,0-6.69-2,8.54,8.54,0,0,0-4.29,1.22,16.37,16.37,0,0,0-3.86,3,15.66,15.66,0,0,0-2.78,4.06,9.92,9.92,0,0,0-1.08,4.29Z" style="fill:url(#Gradiente_sem_nome_47-4)"/><path d="M471.68,104.89a23.12,23.12,0,0,0-6.15.78,20.59,20.59,0,0,0-4.88,2,11.59,11.59,0,0,0-3.23,2.58,4.33,4.33,0,0,0-1.17,2.69,2.16,2.16,0,0,0,1.51,2.1c1,.42,2.14.91,3.37,1.46a11.33,11.33,0,0,1,3.37,2.35,6.31,6.31,0,0,1,1.52,4.64,8.56,8.56,0,0,1-.83,3.76,10.36,10.36,0,0,1-2.25,3,10,10,0,0,1-3.32,2.05,10.91,10.91,0,0,1-4,.74,11.37,11.37,0,0,1-8.83-3.71q-3.37-3.72-3.37-9.87a16.75,16.75,0,0,1,3.12-10.2,24.55,24.55,0,0,1,8.16-7,41.3,41.3,0,0,1,11.37-4,63.24,63.24,0,0,1,27.25.34,37,37,0,0,1,12.26,5.28,27.33,27.33,0,0,1,8.49,9.18,26.74,26.74,0,0,1,3.18,13.47v55.18q0,.89.09,1.95a6.34,6.34,0,0,0,.49,2,3.34,3.34,0,0,0,3.42,2.05,4.89,4.89,0,0,0,3.27-1.32,26.25,26.25,0,0,0,2.69-2.69l2.44,2.05q-1.47,2.06-3.52,4.5a28.13,28.13,0,0,1-11.81,8.2,25.15,25.15,0,0,1-8.89,1.46,17.53,17.53,0,0,1-10.94-3.66q-4.78-3.66-6.25-11.28a41.2,41.2,0,0,1-6.49,7,35,35,0,0,1-6.89,4.59,30.27,30.27,0,0,1-7.08,2.54,33.43,33.43,0,0,1-7.17.78,28.46,28.46,0,0,1-9.09-1.46,21.66,21.66,0,0,1-7.86-4.64,22.64,22.64,0,0,1-5.56-8.25,32.3,32.3,0,0,1-2.1-12.4q0-8.9,3.51-14.56a31.58,31.58,0,0,1,9.23-9.52,62.23,62.23,0,0,1,13-6.59q7.28-2.73,14.89-5.76a15.89,15.89,0,0,0,8.25-6.69,17.89,17.89,0,0,0,2.59-9.13q0-7.23-4.25-11.57T471.68,104.89Zm15.53,42.77a4.52,4.52,0,0,0-1.56-3.71,6.21,6.21,0,0,0-4-1.27,14.16,14.16,0,0,0-6.49,1.57,16,16,0,0,0-5.42,4.59,23.11,23.11,0,0,0-3.71,7.47,34.77,34.77,0,0,0-1.37,10.3,44.31,44.31,0,0,0,.83,9.38,18.09,18.09,0,0,0,2.25,5.9A8.08,8.08,0,0,0,471,185a8.93,8.93,0,0,0,3.9.88,9.3,9.3,0,0,0,4.79-1.32,14.12,14.12,0,0,0,3.9-3.37,16.84,16.84,0,0,0,2.64-4.59,14.05,14.05,0,0,0,1-5.08Z" style="fill:url(#Gradiente_sem_nome_47-5)"/><path d="M574,117.49a80.7,80.7,0,0,1,7.91-10.25,52.67,52.67,0,0,1,3.81-3.81,36.2,36.2,0,0,1,4.25-3.32,22.54,22.54,0,0,1,4.54-2.35,13.42,13.42,0,0,1,4.69-.88,10.28,10.28,0,0,1,7.81,3q2.84,3,2.83,8.35a38,38,0,0,1-.53,6.4,47.79,47.79,0,0,1-2.1,7.47h-2.74a9,9,0,0,0-2.73-5c-1.43-1.33-3.52-2-6.25-2a16.48,16.48,0,0,0-6,1.12,37.57,37.57,0,0,0-5.71,2.78,51.77,51.77,0,0,0-5.28,3.62q-2.49,2-4.54,3.71v63.38a14.26,14.26,0,0,1-.39,3,6.89,6.89,0,0,1-1.9,3.32,12.11,12.11,0,0,1-4.49,2.69,23.84,23.84,0,0,1-8.16,1.12,21.88,21.88,0,0,1-8.15-1.22,12.69,12.69,0,0,1-4.54-2.88,7.34,7.34,0,0,1-2-3.42,13.69,13.69,0,0,1-.39-2.83V114.07a9.14,9.14,0,0,0-1.31-4.93,4.85,4.85,0,0,0-4.45-2.1,6.26,6.26,0,0,0-2.83.59,14.92,14.92,0,0,0-2.54,1.66l-2-2.45a56.56,56.56,0,0,1,5-3.66,38.88,38.88,0,0,1,6-3.17,43.28,43.28,0,0,1,6.93-2.25,34.11,34.11,0,0,1,7.81-.88A20.38,20.38,0,0,1,563.82,98a14.32,14.32,0,0,1,4.88,2.93,13.69,13.69,0,0,1,3,4,22.2,22.2,0,0,1,1.61,4.54,24.62,24.62,0,0,1,.64,4.39C574,115.33,574,116.51,574,117.49Z" style="fill:url(#Gradiente_sem_nome_47-6)"/><path d="M1022.88,114.07a9.06,9.06,0,0,0-1.32-4.93,4.83,4.83,0,0,0-4.44-2.1,6.26,6.26,0,0,0-2.83.59,14.54,14.54,0,0,0-2.54,1.66l-2-2.45a55.13,55.13,0,0,1,5-3.66,38.77,38.77,0,0,1,6-3.17,44,44,0,0,1,6.93-2.25,34.2,34.2,0,0,1,7.82-.88,18.74,18.74,0,0,1,7.52,1.37,19.07,19.07,0,0,1,5.22,3.27,14.31,14.31,0,0,1,3.18,4,11.61,11.61,0,0,1,1.26,3.56,27.23,27.23,0,0,1,4.64-5,31.26,31.26,0,0,1,5.86-3.86,32,32,0,0,1,6.74-2.49,32.19,32.19,0,0,1,21.53,2.35,29.92,29.92,0,0,1,10.89,9.57,47.23,47.23,0,0,1,7,15.72,86.83,86.83,0,0,1,2.44,21.68q0,14.26-3,24.27A50.8,50.8,0,0,1,1101,187.7a29.23,29.23,0,0,1-23.69,12.11,37.23,37.23,0,0,1-9.42-1.07,32.87,32.87,0,0,1-7-2.64,29.82,29.82,0,0,1-4.89-3.17c-1.3-1.08-2.34-2-3.12-2.69V237.9a14.43,14.43,0,0,1-.39,3,7.29,7.29,0,0,1-1.91,3.37,12.14,12.14,0,0,1-4.49,2.78,22.88,22.88,0,0,1-8.15,1.17,22.19,22.19,0,0,1-8.16-1.22,12.43,12.43,0,0,1-4.54-2.93,7.71,7.71,0,0,1-2-3.42,13,13,0,0,1-.39-2.78Zm30,62.21a10.12,10.12,0,0,0,.68,2.73,16.43,16.43,0,0,0,2.15,4,15.81,15.81,0,0,0,3.76,3.66,10.14,10.14,0,0,0,12.94-1.66,24.93,24.93,0,0,0,5-8.89,61.77,61.77,0,0,0,2.83-13.08,136.1,136.1,0,0,0,.88-16A117.52,117.52,0,0,0,1080,129.4a42.34,42.34,0,0,0-3.27-11.67,15.71,15.71,0,0,0-5.13-6.44,11.68,11.68,0,0,0-6.69-2,8.61,8.61,0,0,0-4.3,1.22,16.52,16.52,0,0,0-3.85,3,15.94,15.94,0,0,0-2.79,4.06,10,10,0,0,0-1.07,4.29Z" style="fill:url(#Gradiente_sem_nome_47-7)"/><path d="M1155.5,153.43a28.1,28.1,0,0,0,.92,6.78,40.69,40.69,0,0,0,2.69,7.38,39,39,0,0,0,4.35,7.08,33.79,33.79,0,0,0,6,6,28.53,28.53,0,0,0,7.47,4.2,25.11,25.11,0,0,0,9,1.56,24.23,24.23,0,0,0,6.35-.78,24.64,24.64,0,0,0,5.46-2.15,35.17,35.17,0,0,0,4.89-3.17q2.34-1.8,4.68-3.86l2.45,2.35a66.58,66.58,0,0,1-5.77,6.64,46.6,46.6,0,0,1-8.49,6.78,49,49,0,0,1-11.62,5.28,50.22,50.22,0,0,1-15.14,2.1,46.06,46.06,0,0,1-16.55-3.08,41.17,41.17,0,0,1-14.31-9.23,45.22,45.22,0,0,1-10-15.33,56.35,56.35,0,0,1-3.76-21.48,56,56,0,0,1,2.25-16.31,52.12,52.12,0,0,1,6.1-13.38,49.84,49.84,0,0,1,9-10.45,55.77,55.77,0,0,1,10.79-7.47,52.83,52.83,0,0,1,11.57-4.49,47.18,47.18,0,0,1,24,0,28.11,28.11,0,0,1,8.94,4.2,17.38,17.38,0,0,1,5.32,6.1,15.91,15.91,0,0,1,1.76,7.27,13.79,13.79,0,0,1-2.64,8.26,24.35,24.35,0,0,1-7,6.39Zm19.63-19.83a16,16,0,0,0,2.1-1.51,5.44,5.44,0,0,0,1.31-1.76,9.48,9.48,0,0,0,.74-2.54,24.6,24.6,0,0,0,.24-3.76,30.72,30.72,0,0,0-.54-5.42,22,22,0,0,0-1.8-5.61,13.92,13.92,0,0,0-3.23-4.4,6.76,6.76,0,0,0-4.68-1.76,9,9,0,0,0-6,2.1,16.32,16.32,0,0,0-4.1,5.42,33.79,33.79,0,0,0-2.54,7.57,85.62,85.62,0,0,0-1.42,8.55c-.32,2.86-.52,5.61-.58,8.25s-.1,4.87-.1,6.69Z" style="fill:url(#Gradiente_sem_nome_47-8)"/><path d="M1254,117.49a80.7,80.7,0,0,1,7.91-10.25,48.91,48.91,0,0,1,3.81-3.81,35.39,35.39,0,0,1,4.25-3.32,22.27,22.27,0,0,1,4.54-2.35,13.38,13.38,0,0,1,4.69-.88,10.28,10.28,0,0,1,7.81,3q2.84,3,2.83,8.35a36.92,36.92,0,0,1-.54,6.4,45.68,45.68,0,0,1-2.1,7.47h-2.73a9,9,0,0,0-2.73-5,8.89,8.89,0,0,0-6.25-2,16.48,16.48,0,0,0-6,1.12,37.57,37.57,0,0,0-5.71,2.78,50.68,50.68,0,0,0-5.28,3.62q-2.49,2-4.54,3.71v63.38a14.26,14.26,0,0,1-.39,3,6.89,6.89,0,0,1-1.9,3.32,12.08,12.08,0,0,1-4.5,2.69,23.74,23.74,0,0,1-8.15,1.12,21.88,21.88,0,0,1-8.15-1.22,12.69,12.69,0,0,1-4.54-2.88,7.25,7.25,0,0,1-2-3.42,13.69,13.69,0,0,1-.39-2.83V114.07a9.06,9.06,0,0,0-1.32-4.93,4.83,4.83,0,0,0-4.44-2.1,6.26,6.26,0,0,0-2.83.59,14.92,14.92,0,0,0-2.54,1.66l-2.05-2.45a55.13,55.13,0,0,1,5-3.66,38.77,38.77,0,0,1,6-3.17,43.74,43.74,0,0,1,6.94-2.25,34,34,0,0,1,7.81-.88,20.38,20.38,0,0,1,7.18,1.13,14.32,14.32,0,0,1,4.88,2.93,13.69,13.69,0,0,1,3,4,22.81,22.81,0,0,1,1.61,4.54,23.69,23.69,0,0,1,.63,4.39C1254,115.33,1254,116.51,1254,117.49Z" style="fill:url(#Gradiente_sem_nome_47-9)"/><path d="M1350.42,53a11.86,11.86,0,0,0-5.18,1.17A11,11,0,0,0,1341,58a21.07,21.07,0,0,0-2.88,6.59,38,38,0,0,0-1.07,9.67v24h21.39v7H1337v77a82.82,82.82,0,0,1-3.47,24.51,53.31,53.31,0,0,1-10.5,19.38,48.23,48.23,0,0,1-17.57,12.75q-10.55,4.59-24.61,4.59a54,54,0,0,1-9.57-.83,39.64,39.64,0,0,1-8.11-2.3,18.18,18.18,0,0,1-5.61-3.47,6,6,0,0,1-2.1-4.44,13.79,13.79,0,0,1,.48-3.56,11.22,11.22,0,0,1,1.47-3.28,8.5,8.5,0,0,1,2.39-2.39,5.85,5.85,0,0,1,3.27-.93,2.38,2.38,0,0,1,1.91,1.08,21.71,21.71,0,0,1,1.71,2.64c.58,1,1.25,2.19,2,3.46a14.5,14.5,0,0,0,2.88,3.47,15.37,15.37,0,0,0,4.35,2.64,16.5,16.5,0,0,0,6.29,1.07,18.68,18.68,0,0,0,8.79-2,20.24,20.24,0,0,0,6.55-5.52,32.76,32.76,0,0,0,4.59-8.3,61.78,61.78,0,0,0,2.93-10.25,96.74,96.74,0,0,0,1.51-11.43q.44-6,.44-11.91V105.28h-18v-7h18V86.83a48.24,48.24,0,0,1,2.1-15A35.83,35.83,0,0,1,1314.73,61a31.4,31.4,0,0,1,7.86-7.33,45,45,0,0,1,8.93-4.49,42.23,42.23,0,0,1,8.84-2.25,56.49,56.49,0,0,1,7.52-.58,66.4,66.4,0,0,1,12.3,1,38.07,38.07,0,0,1,9,2.74,15.74,15.74,0,0,1,5.47,3.95,7.21,7.21,0,0,1,1.85,4.59,12.82,12.82,0,0,1-.53,3.57,13,13,0,0,1-1.52,3.32,8.19,8.19,0,0,1-2.39,2.44,5.66,5.66,0,0,1-3.17.93,2.47,2.47,0,0,1-2-1.18,25.79,25.79,0,0,1-1.85-2.93c-.65-1.17-1.37-2.44-2.15-3.8a18.72,18.72,0,0,0-2.88-3.81,14.82,14.82,0,0,0-4.06-2.93A12.29,12.29,0,0,0,1350.42,53Z" style="fill:url(#Gradiente_sem_nome_47-10)"/><path d="M1390.56,153.43a27.61,27.61,0,0,0,.92,6.78,40.69,40.69,0,0,0,2.69,7.38,39.48,39.48,0,0,0,4.34,7.08,34.18,34.18,0,0,0,6,6,28.53,28.53,0,0,0,7.47,4.2,25.11,25.11,0,0,0,9,1.56,24.15,24.15,0,0,0,6.34-.78,24.53,24.53,0,0,0,5.47-2.15,35.17,35.17,0,0,0,4.89-3.17q2.34-1.8,4.68-3.86l2.44,2.35a65.08,65.08,0,0,1-5.76,6.64,46.6,46.6,0,0,1-8.49,6.78,49,49,0,0,1-11.62,5.28,50.22,50.22,0,0,1-15.14,2.1,46,46,0,0,1-16.55-3.08,41.08,41.08,0,0,1-14.31-9.23,45.22,45.22,0,0,1-10-15.33,56.35,56.35,0,0,1-3.76-21.48,56,56,0,0,1,2.25-16.31,52.12,52.12,0,0,1,6.1-13.38,50.09,50.09,0,0,1,9-10.45,56.38,56.38,0,0,1,10.79-7.47,53.1,53.1,0,0,1,11.58-4.49,47.18,47.18,0,0,1,24,0,28.11,28.11,0,0,1,8.94,4.2,17.38,17.38,0,0,1,5.32,6.1,15.91,15.91,0,0,1,1.76,7.27,13.79,13.79,0,0,1-2.64,8.26,24.35,24.35,0,0,1-7,6.39Zm19.62-19.83a14.73,14.73,0,0,0,2.1-1.51,5.33,5.33,0,0,0,1.32-1.76,9.14,9.14,0,0,0,.73-2.54,23.24,23.24,0,0,0,.25-3.76,30.72,30.72,0,0,0-.54-5.42,21.67,21.67,0,0,0-1.81-5.61,13.89,13.89,0,0,0-3.22-4.4,6.77,6.77,0,0,0-4.69-1.76,9,9,0,0,0-6,2.1,16.32,16.32,0,0,0-4.1,5.42,33.79,33.79,0,0,0-2.54,7.57,85.62,85.62,0,0,0-1.42,8.55c-.32,2.86-.52,5.61-.58,8.25s-.1,4.87-.1,6.69Z" style="fill:url(#Gradiente_sem_nome_47-11)"/><path d="M1489.09,189.46a13.58,13.58,0,0,1-.44,3.08,7.37,7.37,0,0,1-2.05,3.42,12.79,12.79,0,0,1-4.64,2.73,24.21,24.21,0,0,1-8.2,1.12,21.58,21.58,0,0,1-8.11-1.22,11.7,11.7,0,0,1-4.39-2.88,7.24,7.24,0,0,1-1.81-3.42,15.3,15.3,0,0,1-.34-2.83V114.07a9.06,9.06,0,0,0-1.32-4.93,4.83,4.83,0,0,0-4.44-2.1,6.26,6.26,0,0,0-2.83.59,14.54,14.54,0,0,0-2.54,1.66l-2-2.45a55.13,55.13,0,0,1,5-3.66,38.77,38.77,0,0,1,6-3.17,43.74,43.74,0,0,1,6.94-2.25,34,34,0,0,1,7.81-.88q6.35,0,9.86,1.71a12.74,12.74,0,0,1,5.18,4.2,12.24,12.24,0,0,1,2,5.32,41.74,41.74,0,0,1,.34,5Zm-33-114.84a11.81,11.81,0,0,1,1.22-5.23,13.49,13.49,0,0,1,3.42-4.34,17.1,17.1,0,0,1,5.08-2.93,17.81,17.81,0,0,1,6.3-1.08,17.53,17.53,0,0,1,6.2,1.08,16.35,16.35,0,0,1,5,2.93,13.75,13.75,0,0,1,3.37,4.34,11.81,11.81,0,0,1,1.22,5.23,11.66,11.66,0,0,1-1.22,5.27,13.3,13.3,0,0,1-3.37,4.25,16.86,16.86,0,0,1-5,2.88,17.52,17.52,0,0,1-6.2,1.07,17.69,17.69,0,0,1-11.38-4,13.06,13.06,0,0,1-3.42-4.25A11.66,11.66,0,0,1,1456.08,74.62Z" style="fill:url(#Gradiente_sem_nome_47-12)"/><path d="M1545.34,105.28v72.17q0,5.18,2,7.18a7.2,7.2,0,0,0,5.37,2,7.85,7.85,0,0,0,4.69-1.47,16.9,16.9,0,0,0,3.52-3.32,20.75,20.75,0,0,0,3-4.78l3,1.37c-1,2.08-2.13,4.36-3.46,6.83a27.1,27.1,0,0,1-13.68,12.21,32.32,32.32,0,0,1-12.64,2.15,27,27,0,0,1-8.25-1.27,19.35,19.35,0,0,1-7-4,20.1,20.1,0,0,1-4.93-6.83,23.93,23.93,0,0,1-1.85-9.86V105.28h-10.94v-7a29.31,29.31,0,0,0,7.62-1.42,38.1,38.1,0,0,0,10-4.73,39.93,39.93,0,0,0,9.52-8.89,34,34,0,0,0,6.25-13.77h7.81V98.25h15.92q7.82,0,7.81-2.64a1.29,1.29,0,0,0-1-1.31c-.65-.23-1.38-.52-2.19-.88a7.17,7.17,0,0,1-2.2-1.52,4.43,4.43,0,0,1-1-3.22,5.55,5.55,0,0,1,1.71-4.3,7,7,0,0,1,7.52-.83,6.67,6.67,0,0,1,2.2,2,9,9,0,0,1,1.32,2.78,11.58,11.58,0,0,1,.44,3.12q0,6.36-3.67,10.11t-11.76,3.76Z" style="fill:url(#Gradiente_sem_nome_47-13)"/><path d="M1572.88,148.25a62.13,62.13,0,0,1,3.71-22.41,47.55,47.55,0,0,1,9.91-16.07,40.18,40.18,0,0,1,14.41-9.66,46.52,46.52,0,0,1,17.18-3.23,50.12,50.12,0,0,1,17.19,3,39.36,39.36,0,0,1,14.41,9.13,44.77,44.77,0,0,1,9.91,15.58q3.7,9.42,3.71,22.31a64.21,64.21,0,0,1-3.71,22.66,50.47,50.47,0,0,1-9.91,16.6,41.28,41.28,0,0,1-14.41,10.21,43.74,43.74,0,0,1-17.19,3.46,46,46,0,0,1-17.18-3.27,40.84,40.84,0,0,1-14.41-9.71,47.4,47.4,0,0,1-9.91-16.12A62.53,62.53,0,0,1,1572.88,148.25Zm60.06-1q0-7.8-.54-15.08a67.81,67.81,0,0,0-2.1-12.94,22.87,22.87,0,0,0-4.49-9,9.75,9.75,0,0,0-7.72-3.37,9.48,9.48,0,0,0-7.71,3.57,24.73,24.73,0,0,0-4.49,9.37,68.33,68.33,0,0,0-2.05,13.24q-.49,7.41-.49,15.23t.49,15.28a69.2,69.2,0,0,0,2.05,13.33,24.74,24.74,0,0,0,4.49,9.43,9.47,9.47,0,0,0,7.71,3.56,9.34,9.34,0,0,0,7.72-3.71,26.16,26.16,0,0,0,4.49-9.76,76.9,76.9,0,0,0,2.1-13.68Q1632.94,155.1,1632.94,147.27Z" style="fill:url(#Gradiente_sem_nome_47-14)"/><path d="M913.58,10.59a99.68,99.68,0,0,0-32-5.64c-23.69,0-44.93,10.18-61.42,29.45-1.67,2-3.21,3.9-4.63,5.82a1.63,1.63,0,0,1-2.67-.06c-1.75-2.61-3.71-5.3-5.89-8C790,11.12,767.72,0,742.72,0A101.93,101.93,0,0,0,710,5.77c-24.45,8.31-40.79,25.1-47.26,48.54-8.67,31.47,2.51,71.53,28.49,102.06C723.94,194.78,805,294.6,805.79,295.6A11.87,11.87,0,0,0,815,300h.51a12,12,0,0,0,9.07-4.83L928.8,156c21.15-26,38-67.56,28.19-101.83C951,33.27,936,18.21,913.58,10.59Zm5.84,138.07L816.76,285.79a2.26,2.26,0,0,1-3.56.07c-12.22-15-82.66-101.68-112.89-137.2C662.93,104.74,657.13,36.31,713.85,17a89.19,89.19,0,0,1,28.87-5.14c42.94,0,63.35,37.75,69.19,51a2.07,2.07,0,0,0,3.77.07c5.91-12.34,25.75-46.11,65.93-46.11a87.25,87.25,0,0,1,28.14,5C966.47,41.13,951.64,109.14,919.42,148.66Z" style="fill:url(#Gradiente_sem_nome_47-15)"/><path d="M824.18,242.78a12.15,12.15,0,0,1-.43-1.6c-4-15.31-7.93-30.16-11.77-44.77-10.43-39.64-20.4-77.49-31-117.65-4.76-18.08-21.52-32.11-42.82-35.84a19.55,19.55,0,0,0-8.06.25c-10,2.46-19.77,5.41-29.6,8.23-3.1.9-3.62,4.53-.8,6a6.81,6.81,0,0,0,.74.31c25.76,8.89,35.15,39.71,17.06,57.46-3.4,3.33-8.09,5.7-12.47,8.35a1.85,1.85,0,0,0-.4,2.86c6.92,7.28,14.22,15,21.76,22.62.86.86,3.48.85,5.16.62,4.22-.59,8.36-2.14,12.54-2.14,1.9,0,4.21,1.21,6,2.38a2.07,2.07,0,0,1,.66,2.78,10.77,10.77,0,0,1-4,4.27c-2.45,1.19-5.51,1.46-9.06,2a1.48,1.48,0,0,0-.93,2.38l9.3,12a2.6,2.6,0,0,0,2.55.95c5.35-1,10.43-2.06,15.54-2.93,3.74-.64,7,.11,8,3.69s-1.56,5.37-5.42,6.09c-3.33.62-6.66,1.26-10.6,2a1.34,1.34,0,0,0-.83,2.1l9.07,12.59a2.42,2.42,0,0,0,2.41.95c6.16-1.17,11.83-2.23,17.47-3.34,4.12-.82,7.65,0,8.6,3.67s-2.07,5.59-6.11,6.33c-3.86.7-7.71,1.45-12.15,2.3a1.74,1.74,0,0,0-1.09,2.69c2.84,4.07,5.57,7.94,8.24,11.84,3.78,5.51,7.36,11.13,11.3,16.56a23.62,23.62,0,0,0,10.53,7.88,30.07,30.07,0,0,0,9.54,2,29.18,29.18,0,0,0,10.73-1.94C824.79,245.82,824.91,244.58,824.18,242.78Z" style="fill:url(#Gradiente_sem_nome_47-16)"/><path d="M799.61,62.16v0c-.58-2.2-3.4-3.59-6.49-3.19l-9.31,1.18a2.53,2.53,0,0,0-2.13,3.15l32.19,122.49c2.52-14.23,4.9-27.63,7.34-41.41Q810.4,103.26,799.61,62.16Z" style="fill:url(#Gradiente_sem_nome_47-17)"/><path d="M911.52,52.05a5.56,5.56,0,0,0,.77-.39c2.65-1.59,1.85-5.13-1.29-5.84h0c-2.82-.62-5.57-1.48-8.44-1.88-17-2.43-29.14-1.51-43.26,7.37l-6.15,4.41c-.66.47-1.27,1-1.88,1.5l-.92.77c-11.39,9.27-17.71,22-20.06,35.31l-9,51.05c-2.44,13.78-4.82,27.18-7.34,41.41-.62,3.5-1.24,7-1.88,10.66,3.84,14.61,7.75,29.46,11.77,44.77a12.15,12.15,0,0,0,.43,1.6c.73,1.8.61,3-.34,3.92a21.09,21.09,0,0,0,10.41-8.47c3.48-5.65,6.57-11.47,9.89-17.2,2.4-4.15,4.85-8.27,7.42-12.62a1.5,1.5,0,0,0-1.1-2.25c-4.67-.61-8.68-1.14-12.7-1.62s-7.28-2.11-6.63-5.94,4.1-4.75,8.27-4.19c5.73.78,11.47,1.49,17.72,2.29a2.37,2.37,0,0,0,2.31-1.1l7.83-12.82a1.56,1.56,0,0,0-1.13-2.36c-3.86-.5-7.15-.93-10.44-1.34-3.91-.48-6.6-2.05-5.91-5.75s3.91-4.57,7.7-4.16c5.17.57,10.31,1.28,15.74,2A2.57,2.57,0,0,0,875.7,170l8.46-12.75a1.3,1.3,0,0,0-1-2c-3.74-.35-6.93-.41-9.56-1.48-1.68-.68-2.82-2.33-4-3.94a2.12,2.12,0,0,1,.5-3c1.74-1.23,3.47-2.53,5.3-2.64,4.17-.26,8.43,1,12.68,1.37,1.7.14,4.32,0,5.1-.93,7-8.12,13.71-16.42,20.08-24.19a1.49,1.49,0,0,0-.45-2.28c-4.72-2.48-9.79-4.59-13.57-7.81C879.76,93.78,886.57,62.47,911.52,52.05Z" style="fill:url(#Gradiente_sem_nome_47-18)"/></svg>