<svg id="Camada_1" data-name="Camada 1" xmlns="http://www.w3.org/2000/svg" xmlns:xlink="http://www.w3.org/1999/xlink" viewBox="0 0 653.61 754.32"><defs><linearGradient id="Gradiente_sem_nome_47" x1="80.22" y1="95.83" x2="30.09" y2="9" gradientUnits="userSpaceOnUse"><stop offset="0" stop-color="#8b93c9" stop-opacity="0.5"/><stop offset="0.66" stop-color="#604c8b"/><stop offset="1" stop-color="#282250"/></linearGradient><linearGradient id="Gradiente_sem_nome_47-2" x1="172.42" y1="95.77" x2="122.88" y2="9.95" xlink:href="#Gradiente_sem_nome_47"/><linearGradient id="Gradiente_sem_nome_47-3" x1="276.38" y1="105.25" x2="213.49" y2="-3.68" xlink:href="#Gradiente_sem_nome_47"/><linearGradient id="Gradiente_sem_nome_47-4" x1="424.65" y1="125.18" x2="354.37" y2="3.46" xlink:href="#Gradiente_sem_nome_47"/><linearGradient id="Gradiente_sem_nome_47-5" x1="528.94" y1="106.18" x2="472.2" y2="7.91" xlink:href="#Gradiente_sem_nome_47"/><linearGradient id="Gradiente_sem_nome_47-6" x1="618.38" y1="85.19" x2="569.04" y2="-0.27" xlink:href="#Gradiente_sem_nome_47"/><linearGradient id="Gradiente_sem_nome_47-7" x1="80.12" y1="728.13" x2="9.84" y2="606.42" xlink:href="#Gradiente_sem_nome_47"/><linearGradient id="Gradiente_sem_nome_47-8" x1="185.12" y1="698.72" x2="135.57" y2="612.9" xlink:href="#Gradiente_sem_nome_47"/><linearGradient id="Gradiente_sem_nome_47-9" x1="266.81" y1="688.14" x2="217.48" y2="602.69" xlink:href="#Gradiente_sem_nome_47"/><linearGradient id="Gradiente_sem_nome_47-10" x1="344.32" y1="717.34" x2="268.17" y2="585.44" xlink:href="#Gradiente_sem_nome_47"/><linearGradient id="Gradiente_sem_nome_47-11" x1="420.18" y1="698.72" x2="370.63" y2="612.9" xlink:href="#Gradiente_sem_nome_47"/><linearGradient id="Gradiente_sem_nome_47-12" x1="494.98" y1="691.95" x2="431.54" y2="582.07" xlink:href="#Gradiente_sem_nome_47"/><linearGradient id="Gradiente_sem_nome_47-13" x1="563.39" y1="690.37" x2="504.77" y2="588.83" xlink:href="#Gradiente_sem_nome_47"/><linearGradient id="Gradiente_sem_nome_47-14" x1="633.9" y1="697.98" x2="583.25" y2="610.25" xlink:href="#Gradiente_sem_nome_47"/><linearGradient id="Gradiente_sem_nome_47-15" x1="423.76" y1="450.73" x2="268.47" y2="181.77" xlink:href="#Gradiente_sem_nome_47"/><linearGradient id="Gradiente_sem_nome_47-16" x1="343.07" y1="447.28" x2="227.61" y2="247.3" xlink:href="#Gradiente_sem_nome_47"/><linearGradient id="Gradiente_sem_nome_47-17" x1="352.27" y1="375.26" x2="290.25" y2="267.84" xlink:href="#Gradiente_sem_nome_47"/><linearGradient id="Gradiente_sem_nome_47-18" x1="417.65" y1="404.53" x2="341.73" y2="273.03" xlink:href="#Gradiente_sem_nome_47"/></defs><path d="M63.48,7.81a15.05,15.05,0,0,0-4.25.59,9.61,9.61,0,0,0-3.57,1.9,9.11,9.11,0,0,0-2.44,3.32,11.86,11.86,0,0,0-.88,4.74,12.65,12.65,0,0,0,2.79,7.57,65.34,65.34,0,0,0,6.93,7.81q4.16,4,9,8.4a99.7,99.7,0,0,1,9,9.18A51.67,51.67,0,0,1,87,61.62a25.43,25.43,0,0,1,2.79,11.72,30.83,30.83,0,0,1-2.4,12.5,25.46,25.46,0,0,1-6.83,9.28,30.66,30.66,0,0,1-10.74,5.81,46.33,46.33,0,0,1-14,2A37.24,37.24,0,0,1,43.55,101a44.43,44.43,0,0,1-9.71-4.69,43.08,43.08,0,0,1-7.28-5.91,39.62,39.62,0,0,1-4.69-5.66l3.42-2.45a32.68,32.68,0,0,0,3.23,3.18,30.69,30.69,0,0,0,4.34,3.17A24.76,24.76,0,0,0,38,91.06a17.16,17.16,0,0,0,5.56.93q7,0,11.53-3.37t4.49-10A14.55,14.55,0,0,0,57.13,71,60.55,60.55,0,0,0,51,62.79q-3.72-4.2-8-8.69a115.63,115.63,0,0,1-8-9.28A54.22,54.22,0,0,1,28.81,35a24,24,0,0,1-2.44-10.55,22.18,22.18,0,0,1,2.49-10.74A22.69,22.69,0,0,1,35.5,6.05,29.79,29.79,0,0,1,45,1.51,39.94,39.94,0,0,1,56,0,56.05,56.05,0,0,1,67.87,1.17,29.06,29.06,0,0,1,77.1,4.74a17.19,17.19,0,0,1,6,6,16.42,16.42,0,0,1,2.1,8.4,9.37,9.37,0,0,1-2.45,6.45,8.67,8.67,0,0,1-6.83,2.73q-4.2,0-6.4-1.81a6,6,0,0,1-2.2-4.93,4.73,4.73,0,0,1,1-3.22,8.8,8.8,0,0,1,2.3-1.9c.84-.49,1.61-.92,2.29-1.27a1.61,1.61,0,0,0,1-1.42Q73.93,11,71,9.42A15.58,15.58,0,0,0,63.48,7.81Z" style="fill:url(#Gradiente_sem_nome_47)"/><path d="M133.11,56.54a27.63,27.63,0,0,0,.92,6.79,40.6,40.6,0,0,0,2.69,7.37,38.79,38.79,0,0,0,4.34,7.08,33.9,33.9,0,0,0,6,6,28.53,28.53,0,0,0,7.47,4.2,25.11,25.11,0,0,0,9,1.56,24.58,24.58,0,0,0,6.34-.78,25,25,0,0,0,5.47-2.15,36.74,36.74,0,0,0,4.89-3.17c1.56-1.21,3.12-2.49,4.68-3.86l2.44,2.34a64,64,0,0,1-5.76,6.64,46.63,46.63,0,0,1-8.49,6.79,48.62,48.62,0,0,1-11.62,5.27,50.22,50.22,0,0,1-15.14,2.1,46,46,0,0,1-16.55-3.07,41,41,0,0,1-14.31-9.23,45.22,45.22,0,0,1-10-15.33,56.37,56.37,0,0,1-3.76-21.49,56.07,56.07,0,0,1,2.25-16.31A52.2,52.2,0,0,1,110,23.93a49.83,49.83,0,0,1,9-10.45A55.26,55.26,0,0,1,129.79,6a52.87,52.87,0,0,1,11.57-4.5,47.47,47.47,0,0,1,24,.05,28.11,28.11,0,0,1,8.94,4.2,17.5,17.5,0,0,1,5.32,6.11,15.88,15.88,0,0,1,1.76,7.27,13.76,13.76,0,0,1-2.64,8.25,24.38,24.38,0,0,1-7,6.4Zm19.62-19.82a15.56,15.56,0,0,0,2.1-1.51,5.33,5.33,0,0,0,1.32-1.76,9.59,9.59,0,0,0,.74-2.54,24.6,24.6,0,0,0,.24-3.76,30.63,30.63,0,0,0-.54-5.42,22.11,22.11,0,0,0-1.8-5.62,14.14,14.14,0,0,0-3.23-4.39A6.76,6.76,0,0,0,146.88,10a9,9,0,0,0-6,2.1,16.21,16.21,0,0,0-4.1,5.42,33.62,33.62,0,0,0-2.54,7.57,85.91,85.91,0,0,0-1.42,8.54c-.32,2.87-.52,5.62-.58,8.26s-.1,4.86-.1,6.69Z" style="fill:url(#Gradiente_sem_nome_47-2)"/><path d="M285.84,84.38a18.65,18.65,0,0,0,.1,1.9,6.5,6.5,0,0,0,.49,2,3.61,3.61,0,0,0,1.17,1.52,3.69,3.69,0,0,0,2.24.58A4.81,4.81,0,0,0,293.16,89c1-.88,1.89-1.77,2.74-2.68l2.34,2a54.47,54.47,0,0,1-3.66,4.54,31.87,31.87,0,0,1-5.32,4.74,31.27,31.27,0,0,1-7.13,3.76,25.77,25.77,0,0,1-9.08,1.51,22.59,22.59,0,0,1-7.47-1.12,16.43,16.43,0,0,1-5.37-3,12,12,0,0,1-3.28-4.49,14.4,14.4,0,0,1-1.07-5.52V84.38a76.14,76.14,0,0,1-10.25,9.27q-2.36,1.75-5,3.42a49.91,49.91,0,0,1-5.47,3,34.12,34.12,0,0,1-5.86,2.1,24.22,24.22,0,0,1-6.06.78,22,22,0,0,1-10-2.1,18.77,18.77,0,0,1-6.69-5.52,23,23,0,0,1-3.71-7.71,32.63,32.63,0,0,1-1.17-8.6V18.55a18.65,18.65,0,0,0-.1-1.9,6.5,6.5,0,0,0-.49-1.95,3.61,3.61,0,0,0-1.17-1.52,3.69,3.69,0,0,0-2.24-.58,4.85,4.85,0,0,0-3.27,1.32,25.22,25.22,0,0,0-2.69,2.68l-2.44-2.05A56.6,56.6,0,0,1,192.92,10a32.27,32.27,0,0,1,5.32-4.74,31,31,0,0,1,7.18-3.76,25.61,25.61,0,0,1,9-1.51A23.07,23.07,0,0,1,222,1.12a15.83,15.83,0,0,1,5.37,3,12.19,12.19,0,0,1,3.23,4.49,14.4,14.4,0,0,1,1.07,5.52V79.39a9.49,9.49,0,0,0,.44,2.79,9.32,9.32,0,0,0,1.27,2.59,6.5,6.5,0,0,0,2.1,1.9,5.94,5.94,0,0,0,3,.73,12.32,12.32,0,0,0,5.66-1.46,27.24,27.24,0,0,0,5.18-3.47,39.23,39.23,0,0,0,4.05-4c1.14-1.31,2-2.28,2.49-2.93v-57a18.65,18.65,0,0,0-.1-1.9,6.5,6.5,0,0,0-.49-1.95,3.61,3.61,0,0,0-1.17-1.52,3.69,3.69,0,0,0-2.24-.58,4.9,4.9,0,0,0-3.28,1.32,25.1,25.1,0,0,0-2.68,2.68l-2.44-2.05A54.47,54.47,0,0,1,247.12,10a31.87,31.87,0,0,1,5.32-4.74,30.82,30.82,0,0,1,7.18-3.76,25.61,25.61,0,0,1,9-1.51,23.07,23.07,0,0,1,7.52,1.12,15.83,15.83,0,0,1,5.37,3,12.31,12.31,0,0,1,3.23,4.49,14.4,14.4,0,0,1,1.07,5.52Z" style="fill:url(#Gradiente_sem_nome_47-3)"/><path d="M357.72,17.19a9.06,9.06,0,0,0-1.32-4.93,4.84,4.84,0,0,0-4.45-2.1,6.29,6.29,0,0,0-2.83.58,15.56,15.56,0,0,0-2.54,1.66L344.53,10a56,56,0,0,1,5-3.66,38.48,38.48,0,0,1,6-3.17A42,42,0,0,1,362.5.88,33.56,33.56,0,0,1,370.31,0a18.71,18.71,0,0,1,7.52,1.37,19,19,0,0,1,5.23,3.27,14.23,14.23,0,0,1,3.17,4,11.45,11.45,0,0,1,1.27,3.57,26.89,26.89,0,0,1,4.64-5,31.14,31.14,0,0,1,20-7.23,30.8,30.8,0,0,1,14.16,3.22,30.18,30.18,0,0,1,10.89,9.57,47.37,47.37,0,0,1,7,15.73,86.3,86.3,0,0,1,2.44,21.68q0,14.25-3,24.26a50.55,50.55,0,0,1-7.81,16.36,29.2,29.2,0,0,1-23.68,12.11,37.23,37.23,0,0,1-9.42-1.07,33,33,0,0,1-7-2.64A29.06,29.06,0,0,1,390.82,96c-1.3-1.07-2.34-2-3.12-2.68V141a14.35,14.35,0,0,1-.4,3,7.21,7.21,0,0,1-1.9,3.37,12.32,12.32,0,0,1-4.49,2.79,23,23,0,0,1-8.16,1.17,22.13,22.13,0,0,1-8.15-1.22,12.6,12.6,0,0,1-4.54-2.93,7.71,7.71,0,0,1-1.95-3.42,12.5,12.5,0,0,1-.39-2.78Zm30,62.2a9.7,9.7,0,0,0,.68,2.74,15.72,15.72,0,0,0,2.15,4,15.26,15.26,0,0,0,3.76,3.66,9.48,9.48,0,0,0,5.61,1.62,9.6,9.6,0,0,0,7.33-3.28,25.27,25.27,0,0,0,5-8.88A62.64,62.64,0,0,0,415,66.16a135.92,135.92,0,0,0,.88-16,118.85,118.85,0,0,0-1.12-17.68,41.76,41.76,0,0,0-3.28-11.67,15.88,15.88,0,0,0-5.12-6.45,11.78,11.78,0,0,0-6.69-2,8.65,8.65,0,0,0-4.3,1.22,16.88,16.88,0,0,0-3.86,3,16,16,0,0,0-2.78,4.05A9.91,9.91,0,0,0,387.7,25Z" style="fill:url(#Gradiente_sem_nome_47-4)"/><path d="M493.55,8a23.12,23.12,0,0,0-6.15.78,21.21,21.21,0,0,0-4.88,2,11.56,11.56,0,0,0-3.22,2.59A4.31,4.31,0,0,0,478.13,16a2.17,2.17,0,0,0,1.51,2.1c1,.42,2.13.91,3.37,1.46a11.42,11.42,0,0,1,3.37,2.34,6.32,6.32,0,0,1,1.51,4.64,8.53,8.53,0,0,1-.83,3.76,10.19,10.19,0,0,1-5.57,5.08,10.85,10.85,0,0,1-3.95.73,11.35,11.35,0,0,1-8.84-3.71q-3.36-3.71-3.37-9.86a16.74,16.74,0,0,1,3.13-10.21,24.38,24.38,0,0,1,8.15-7,41.37,41.37,0,0,1,11.38-4,63.2,63.2,0,0,1,27.24.34,37.11,37.11,0,0,1,12.26,5.27,27.36,27.36,0,0,1,8.5,9.18,26.88,26.88,0,0,1,3.17,13.48V84.77c0,.58,0,1.23.1,2a5.94,5.94,0,0,0,.49,2,3.65,3.65,0,0,0,1.17,1.47,3.69,3.69,0,0,0,2.24.58,4.9,4.9,0,0,0,3.28-1.32,26.06,26.06,0,0,0,2.68-2.68l2.44,2c-1,1.37-2.15,2.87-3.51,4.49a28.08,28.08,0,0,1-11.82,8.2,25.11,25.11,0,0,1-8.89,1.47,17.5,17.5,0,0,1-10.93-3.66q-4.78-3.66-6.25-11.28a41.62,41.62,0,0,1-6.5,7,34.93,34.93,0,0,1-6.88,4.59,30.59,30.59,0,0,1-7.08,2.54,33.52,33.52,0,0,1-7.18.78,28.41,28.41,0,0,1-9.08-1.47,21.63,21.63,0,0,1-7.86-4.63A22.7,22.7,0,0,1,460,88.57a32.46,32.46,0,0,1-2.1-12.4q0-8.88,3.52-14.55a31.43,31.43,0,0,1,9.22-9.52,62.23,62.23,0,0,1,13-6.59q7.28-2.73,14.9-5.76a16,16,0,0,0,8.25-6.69,18,18,0,0,0,2.59-9.13q0-7.23-4.25-11.58T493.55,8Zm15.53,42.77a4.5,4.5,0,0,0-1.56-3.71,6.18,6.18,0,0,0-4-1.27,14.19,14.19,0,0,0-6.5,1.56A16.21,16.21,0,0,0,491.6,52a23.31,23.31,0,0,0-3.71,7.47,35.22,35.22,0,0,0-1.37,10.31,44.2,44.2,0,0,0,.83,9.37A18.62,18.62,0,0,0,489.6,85a8.14,8.14,0,0,0,3.27,3.08,9.11,9.11,0,0,0,3.91.87,9.28,9.28,0,0,0,4.78-1.31,14.48,14.48,0,0,0,3.91-3.37,17.11,17.11,0,0,0,2.64-4.59,14.08,14.08,0,0,0,1-5.08Z" style="fill:url(#Gradiente_sem_nome_47-5)"/><path d="M595.9,20.61a79.91,79.91,0,0,1,7.91-10.26,52.66,52.66,0,0,1,3.81-3.81,36.67,36.67,0,0,1,4.25-3.32A22,22,0,0,1,616.41.88,13.14,13.14,0,0,1,621.09,0a10.27,10.27,0,0,1,7.82,3c1.88,2,2.83,4.77,2.83,8.35a36.89,36.89,0,0,1-.54,6.39,47.57,47.57,0,0,1-2.1,7.48h-2.73a9,9,0,0,0-2.74-5q-2.14-2-6.25-2a16.44,16.44,0,0,0-6,1.13,36.75,36.75,0,0,0-5.72,2.78,51.54,51.54,0,0,0-5.27,3.61c-1.66,1.31-3.17,2.54-4.54,3.71V92.77a14.27,14.27,0,0,1-.39,3,7,7,0,0,1-1.91,3.32,12.16,12.16,0,0,1-4.49,2.69,24,24,0,0,1-8.15,1.12,22.19,22.19,0,0,1-8.16-1.22,12.78,12.78,0,0,1-4.54-2.88,7.41,7.41,0,0,1-2-3.42,13.69,13.69,0,0,1-.39-2.83V17.19a9.06,9.06,0,0,0-1.32-4.93,4.83,4.83,0,0,0-4.44-2.1,6.34,6.34,0,0,0-2.84.58,15.51,15.51,0,0,0-2.53,1.66L552.73,10a56,56,0,0,1,5-3.66,38.48,38.48,0,0,1,6-3.17A42,42,0,0,1,570.7.88,33.65,33.65,0,0,1,578.52,0a20.56,20.56,0,0,1,7.17,1.12,14.43,14.43,0,0,1,4.89,2.93,13.65,13.65,0,0,1,3,4.06,22,22,0,0,1,1.62,4.54A24.44,24.44,0,0,1,595.8,17C595.87,18.44,595.9,19.63,595.9,20.61Z" style="fill:url(#Gradiente_sem_nome_47-6)"/><path d="M13.18,620.14a9.14,9.14,0,0,0-1.31-4.93,4.85,4.85,0,0,0-4.45-2.1,6.13,6.13,0,0,0-2.83.59,14.92,14.92,0,0,0-2.54,1.66l-2-2.45a56.56,56.56,0,0,1,5-3.66,38.88,38.88,0,0,1,6-3.17A43.28,43.28,0,0,1,18,603.83a34.11,34.11,0,0,1,7.81-.88,18.71,18.71,0,0,1,7.52,1.37,19.13,19.13,0,0,1,5.23,3.27,14.45,14.45,0,0,1,3.17,4A11.41,11.41,0,0,1,43,615.16a26.89,26.89,0,0,1,4.64-5,30.93,30.93,0,0,1,5.86-3.86,31.74,31.74,0,0,1,6.74-2.49,32.19,32.19,0,0,1,21.53,2.35,30,30,0,0,1,10.89,9.57,47.43,47.43,0,0,1,7,15.72,86.36,86.36,0,0,1,2.44,21.68q0,14.25-3,24.27a50.59,50.59,0,0,1-7.81,16.35,29.23,29.23,0,0,1-23.68,12.11,37.37,37.37,0,0,1-9.43-1.07,33.08,33.08,0,0,1-7-2.64A29.7,29.7,0,0,1,46.29,699c-1.3-1.08-2.34-2-3.13-2.69V744a14.43,14.43,0,0,1-.39,3,7.26,7.26,0,0,1-1.9,3.37,12.31,12.31,0,0,1-4.49,2.78,23,23,0,0,1-8.16,1.17,22.09,22.09,0,0,1-8.15-1.22,12.47,12.47,0,0,1-4.54-2.93,7.74,7.74,0,0,1-2-3.42,13.12,13.12,0,0,1-.39-2.78Zm30,62.21a9.87,9.87,0,0,0,.69,2.73,16,16,0,0,0,5.91,7.67,10.14,10.14,0,0,0,12.94-1.66,25.23,25.23,0,0,0,5-8.89,62.39,62.39,0,0,0,2.83-13.08,138.42,138.42,0,0,0,.88-16,117.37,117.37,0,0,0-1.13-17.68A42.34,42.34,0,0,0,67,623.8a15.78,15.78,0,0,0-5.12-6.44,11.7,11.7,0,0,0-6.69-2,8.55,8.55,0,0,0-4.3,1.22,16.57,16.57,0,0,0-3.86,3,15.66,15.66,0,0,0-2.78,4.06A9.89,9.89,0,0,0,43.16,628Z" style="fill:url(#Gradiente_sem_nome_47-7)"/><path d="M145.8,659.5a27.66,27.66,0,0,0,.93,6.78,40.9,40.9,0,0,0,2.68,7.38,39.53,39.53,0,0,0,4.35,7.08,33.51,33.51,0,0,0,6,6,28.22,28.22,0,0,0,7.47,4.2,25.06,25.06,0,0,0,9,1.56,24.6,24.6,0,0,0,6.35-.78,24.91,24.91,0,0,0,5.47-2.15,35.07,35.07,0,0,0,4.88-3.17c1.56-1.2,3.13-2.49,4.69-3.86l2.44,2.35a67.68,67.68,0,0,1-5.76,6.64,47,47,0,0,1-8.5,6.78,48.84,48.84,0,0,1-11.62,5.28,50.18,50.18,0,0,1-15.14,2.1,46.06,46.06,0,0,1-16.55-3.08,41,41,0,0,1-14.3-9.23,45.07,45.07,0,0,1-10-15.33,62,62,0,0,1-1.52-37.79,52.14,52.14,0,0,1,6.11-13.38,49.54,49.54,0,0,1,9-10.45A56.07,56.07,0,0,1,142.48,609a53,53,0,0,1,11.57-4.49,47.22,47.22,0,0,1,24,0,28.16,28.16,0,0,1,8.93,4.19,17.53,17.53,0,0,1,5.33,6.11,15.87,15.87,0,0,1,1.75,7.27,13.87,13.87,0,0,1-2.63,8.26,24.48,24.48,0,0,1-7,6.39Zm19.63-19.83a14.73,14.73,0,0,0,2.1-1.51,5.62,5.62,0,0,0,1.32-1.76,9.49,9.49,0,0,0,.73-2.54,24.6,24.6,0,0,0,.24-3.76,31.61,31.61,0,0,0-.53-5.42,21.67,21.67,0,0,0-1.81-5.61,14,14,0,0,0-3.22-4.4,6.78,6.78,0,0,0-4.69-1.76,9,9,0,0,0-6,2.1,16.35,16.35,0,0,0-4.1,5.42,34.3,34.3,0,0,0-2.54,7.57,82.8,82.8,0,0,0-1.41,8.55c-.33,2.86-.52,5.61-.59,8.25s-.1,4.87-.1,6.69Z" style="fill:url(#Gradiente_sem_nome_47-8)"/><path d="M244.34,623.56a80.61,80.61,0,0,1,7.91-10.26,52.39,52.39,0,0,1,3.8-3.8,36.2,36.2,0,0,1,4.25-3.32,22.54,22.54,0,0,1,4.54-2.35,13.46,13.46,0,0,1,4.69-.88,10.27,10.27,0,0,1,7.81,3q2.84,3,2.84,8.35a36.92,36.92,0,0,1-.54,6.4,47.79,47.79,0,0,1-2.1,7.47H274.8a9,9,0,0,0-2.73-5c-1.43-1.33-3.52-2-6.25-2a16.52,16.52,0,0,0-6,1.12,38,38,0,0,0-5.71,2.78,49,49,0,0,0-5.27,3.62c-1.66,1.3-3.18,2.54-4.54,3.71v63.38a14.26,14.26,0,0,1-.39,3,7,7,0,0,1-1.91,3.32,12.11,12.11,0,0,1-4.49,2.69,23.84,23.84,0,0,1-8.16,1.12,21.92,21.92,0,0,1-8.15-1.22,12.69,12.69,0,0,1-4.54-2.88,7.36,7.36,0,0,1-1.95-3.42,13.69,13.69,0,0,1-.39-2.83V620.14a9.06,9.06,0,0,0-1.32-4.93,4.84,4.84,0,0,0-4.45-2.1,6.16,6.16,0,0,0-2.83.59,14.92,14.92,0,0,0-2.54,1.66l-2.05-2.45a58.06,58.06,0,0,1,5-3.66,39.35,39.35,0,0,1,6-3.17,44,44,0,0,1,6.93-2.25A34.11,34.11,0,0,1,227,603a20.38,20.38,0,0,1,7.18,1.13A14.23,14.23,0,0,1,239,607a13.52,13.52,0,0,1,3,4,21.62,21.62,0,0,1,1.61,4.54,24.49,24.49,0,0,1,.64,4.39C244.3,621.4,244.34,622.58,244.34,623.56Z" style="fill:url(#Gradiente_sem_nome_47-9)"/><path d="M340.72,559.11a11.79,11.79,0,0,0-5.17,1.17A10.94,10.94,0,0,0,331.3,564a20.62,20.62,0,0,0-2.88,6.59,37.55,37.55,0,0,0-1.08,9.67v24h21.39v7H327.34V688.3a82.85,82.85,0,0,1-3.46,24.52,53.4,53.4,0,0,1-10.5,19.38A48.35,48.35,0,0,1,295.8,745q-10.55,4.57-24.61,4.59a54,54,0,0,1-9.57-.83,39.35,39.35,0,0,1-8.1-2.3,18.12,18.12,0,0,1-5.62-3.47,6,6,0,0,1-2.1-4.44,13.39,13.39,0,0,1,.49-3.56,11.2,11.2,0,0,1,1.46-3.28,8.53,8.53,0,0,1,2.4-2.39,5.8,5.8,0,0,1,3.27-.93,2.38,2.38,0,0,1,1.9,1.08,20,20,0,0,1,1.71,2.63c.59,1.05,1.26,2.2,2,3.47a14.5,14.5,0,0,0,2.88,3.47,15.66,15.66,0,0,0,4.35,2.64,16.56,16.56,0,0,0,6.3,1.07,18.68,18.68,0,0,0,8.79-2,20.1,20.1,0,0,0,6.54-5.52,32.76,32.76,0,0,0,4.59-8.3,60.83,60.83,0,0,0,2.93-10.25,94.69,94.69,0,0,0,1.51-11.43q.45-6,.44-11.91V611.35h-18v-7h18V592.89a48.22,48.22,0,0,1,2.1-15A36.05,36.05,0,0,1,305,567a31.4,31.4,0,0,1,7.86-7.33,45.09,45.09,0,0,1,8.94-4.49,42.14,42.14,0,0,1,8.83-2.25,56.73,56.73,0,0,1,7.52-.58,66.44,66.44,0,0,1,12.31,1,38,38,0,0,1,9,2.74,15.62,15.62,0,0,1,5.47,4,7.17,7.17,0,0,1,1.86,4.59,12.48,12.48,0,0,1-.54,3.57,13,13,0,0,1-1.51,3.32,8.22,8.22,0,0,1-2.4,2.44,5.64,5.64,0,0,1-3.17.93,2.44,2.44,0,0,1-1.95-1.18,24.4,24.4,0,0,1-1.86-2.93c-.65-1.17-1.37-2.44-2.15-3.8a18.72,18.72,0,0,0-2.88-3.81,14.92,14.92,0,0,0-4-2.93A12.34,12.34,0,0,0,340.72,559.11Z" style="fill:url(#Gradiente_sem_nome_47-10)"/><path d="M380.86,659.5a27.66,27.66,0,0,0,.93,6.78,40.9,40.9,0,0,0,2.68,7.38,39,39,0,0,0,4.35,7.08,33.51,33.51,0,0,0,6,6,28.22,28.22,0,0,0,7.47,4.2,25,25,0,0,0,9,1.56,24.6,24.6,0,0,0,6.35-.78,24.91,24.91,0,0,0,5.47-2.15,35.07,35.07,0,0,0,4.88-3.17q2.34-1.8,4.69-3.86l2.44,2.35a67.68,67.68,0,0,1-5.76,6.64,47,47,0,0,1-8.5,6.78,48.84,48.84,0,0,1-11.62,5.28,50.18,50.18,0,0,1-15.14,2.1,46.06,46.06,0,0,1-16.55-3.08,41.17,41.17,0,0,1-14.31-9.23,45.37,45.37,0,0,1-10-15.33,61.92,61.92,0,0,1-1.51-37.79,52.46,52.46,0,0,1,6.1-13.38,49.59,49.59,0,0,1,9-10.45A56.07,56.07,0,0,1,377.54,609a52.83,52.83,0,0,1,11.57-4.49,47.22,47.22,0,0,1,24,0,28.26,28.26,0,0,1,8.93,4.19,17.39,17.39,0,0,1,5.32,6.11,15.75,15.75,0,0,1,1.76,7.27,13.81,13.81,0,0,1-2.64,8.26,24.22,24.22,0,0,1-7,6.39Zm19.63-19.83a16,16,0,0,0,2.1-1.51,5.62,5.62,0,0,0,1.32-1.76,9.49,9.49,0,0,0,.73-2.54,24.6,24.6,0,0,0,.24-3.76,31.61,31.61,0,0,0-.53-5.42,22.06,22.06,0,0,0-1.81-5.61,14,14,0,0,0-3.22-4.4,6.8,6.8,0,0,0-4.69-1.76,9,9,0,0,0-6,2.1,16.35,16.35,0,0,0-4.1,5.42A34.3,34.3,0,0,0,382,628a82.8,82.8,0,0,0-1.41,8.55q-.49,4.29-.59,8.25c-.06,2.64-.1,4.87-.1,6.69Z" style="fill:url(#Gradiente_sem_nome_47-11)"/><path d="M479.39,695.53a13.5,13.5,0,0,1-.43,3.08A7.39,7.39,0,0,1,476.9,702a12.83,12.83,0,0,1-4.63,2.73,24.27,24.27,0,0,1-8.21,1.12,21.49,21.49,0,0,1-8.1-1.22,11.75,11.75,0,0,1-4.4-2.88,7.26,7.26,0,0,1-1.8-3.42,15.45,15.45,0,0,1-.35-2.83V620.14a9.14,9.14,0,0,0-1.31-4.93,4.84,4.84,0,0,0-4.45-2.1,6.13,6.13,0,0,0-2.83.59,14.92,14.92,0,0,0-2.54,1.66l-2-2.45a56.56,56.56,0,0,1,5-3.66,39.35,39.35,0,0,1,6-3.17,43.28,43.28,0,0,1,6.93-2.25A34.11,34.11,0,0,1,462,603q6.35,0,9.87,1.71a12.7,12.7,0,0,1,5.17,4.2,12.12,12.12,0,0,1,2,5.32,41.74,41.74,0,0,1,.34,5Zm-33-114.84a11.67,11.67,0,0,1,1.22-5.23,13.12,13.12,0,0,1,3.42-4.34,16.71,16.71,0,0,1,5.07-2.93,17.81,17.81,0,0,1,6.3-1.08,17.49,17.49,0,0,1,6.2,1.08,16.16,16.16,0,0,1,5,2.93,13.5,13.5,0,0,1,3.37,4.34,11.67,11.67,0,0,1,1.22,5.23A11.53,11.53,0,0,1,477,586a13.27,13.27,0,0,1-3.37,4.25,17.08,17.08,0,0,1-5,2.88,17.48,17.48,0,0,1-6.2,1.07A17.63,17.63,0,0,1,451,590.21a12.9,12.9,0,0,1-3.42-4.25A11.53,11.53,0,0,1,446.39,580.69Z" style="fill:url(#Gradiente_sem_nome_47-12)"/><path d="M535.64,611.35v72.17q0,5.18,2,7.18a7.17,7.17,0,0,0,5.37,2,7.85,7.85,0,0,0,4.69-1.47,16.85,16.85,0,0,0,3.51-3.32,20.75,20.75,0,0,0,3-4.78l3,1.37q-1.47,3.12-3.47,6.83a27,27,0,0,1-13.67,12.21,32.41,32.41,0,0,1-12.65,2.15,27.05,27.05,0,0,1-8.25-1.27,19.31,19.31,0,0,1-7-4,20,20,0,0,1-4.93-6.83,23.78,23.78,0,0,1-1.86-9.87V611.35H494.43v-7a29.24,29.24,0,0,0,7.62-1.42,38,38,0,0,0,10-4.73,39.74,39.74,0,0,0,9.52-8.89,34,34,0,0,0,6.25-13.77h7.81v28.81h15.92q7.82,0,7.82-2.64a1.29,1.29,0,0,0-1-1.31c-.65-.23-1.39-.53-2.2-.88A7.29,7.29,0,0,1,554,598a4.43,4.43,0,0,1-1-3.22,5.55,5.55,0,0,1,1.71-4.3,6.33,6.33,0,0,1,4.44-1.56,6.24,6.24,0,0,1,3.08.73,6.64,6.64,0,0,1,2.19,2,8.61,8.61,0,0,1,1.32,2.78,11.58,11.58,0,0,1,.44,3.12q0,6.36-3.66,10.11t-11.77,3.76Z" style="fill:url(#Gradiente_sem_nome_47-13)"/><path d="M563.18,654.32a62.13,62.13,0,0,1,3.71-22.41,47.57,47.57,0,0,1,9.92-16.07,40.06,40.06,0,0,1,14.4-9.66A46.58,46.58,0,0,1,608.4,603a50.12,50.12,0,0,1,17.19,3,39.32,39.32,0,0,1,14.4,9.13,44.63,44.63,0,0,1,9.91,15.58q3.72,9.42,3.71,22.31a64,64,0,0,1-3.71,22.66,50.31,50.31,0,0,1-9.91,16.6,41.25,41.25,0,0,1-14.4,10.21,43.74,43.74,0,0,1-17.19,3.46,46,46,0,0,1-17.19-3.27,40.6,40.6,0,0,1-14.4-9.72,47.27,47.27,0,0,1-9.92-16.11A62.53,62.53,0,0,1,563.18,654.32Zm60.06-1q0-7.8-.53-15.08a67.81,67.81,0,0,0-2.1-12.94,22.88,22.88,0,0,0-4.5-9,9.73,9.73,0,0,0-7.71-3.37,9.51,9.51,0,0,0-7.72,3.57,24.73,24.73,0,0,0-4.49,9.37,69.11,69.11,0,0,0-2.05,13.24q-.5,7.41-.49,15.23t.49,15.28a70,70,0,0,0,2.05,13.33,24.74,24.74,0,0,0,4.49,9.43,9.53,9.53,0,0,0,7.72,3.56,9.32,9.32,0,0,0,7.71-3.71,26.17,26.17,0,0,0,4.5-9.76,76.9,76.9,0,0,0,2.1-13.68Q623.23,661.17,623.24,653.34Z" style="fill:url(#Gradiente_sem_nome_47-14)"/><path d="M430.53,212.49a99.74,99.74,0,0,0-32-5.64c-23.69,0-44.92,10.18-61.41,29.45-1.68,1.95-3.22,3.9-4.64,5.82a1.62,1.62,0,0,1-2.66-.06c-1.76-2.61-3.72-5.3-5.9-8-17.05-21-39.28-32.17-64.28-32.17a101.93,101.93,0,0,0-32.7,5.77c-24.45,8.31-40.79,25.1-47.26,48.54-8.67,31.47,2.51,71.53,28.5,102.06C240.89,396.68,321.91,496.5,322.73,497.5a11.87,11.87,0,0,0,9.23,4.4h.52a12,12,0,0,0,9.06-4.83l104.2-139.18c21.15-26,38-67.56,28.19-101.83C467.93,235.17,452.92,220.11,430.53,212.49Zm5.83,138.07L333.7,487.69a2.26,2.26,0,0,1-3.56.07c-12.22-15-82.66-101.68-112.88-137.2-37.38-43.92-43.18-112.35,13.53-131.62a89.58,89.58,0,0,1,28.87-5.15c42.94,0,63.35,37.76,69.19,51a2.07,2.07,0,0,0,3.77.07c5.91-12.34,25.75-46.11,65.93-46.11a87.59,87.59,0,0,1,28.15,5C483.41,243,468.59,311,436.36,350.56Z" style="fill:url(#Gradiente_sem_nome_47-15)"/><path d="M341.12,444.68a12.15,12.15,0,0,1-.43-1.6c-4-15.31-7.93-30.16-11.77-44.77-10.43-39.64-20.4-77.49-31-117.65-4.76-18.08-21.51-32.11-42.82-35.84a19.55,19.55,0,0,0-8.06.25c-10,2.46-19.76,5.41-29.6,8.23-3.1.9-3.62,4.53-.8,5.95a6.81,6.81,0,0,0,.74.31c25.76,8.89,35.16,39.71,17.06,57.46-3.4,3.33-8.08,5.7-12.46,8.35a1.85,1.85,0,0,0-.41,2.86c6.93,7.28,14.22,15,21.77,22.62.85.86,3.48.85,5.16.62,4.21-.59,8.36-2.14,12.53-2.14,1.9,0,4.21,1.21,6,2.38a2.08,2.08,0,0,1,.66,2.78,10.84,10.84,0,0,1-4.05,4.27c-2.46,1.19-5.52,1.46-9.06,2a1.49,1.49,0,0,0-.94,2.38l9.31,12a2.58,2.58,0,0,0,2.54.95c5.36-1,10.43-2.06,15.54-2.93,3.75-.64,7.05.11,8,3.68s-1.56,5.38-5.42,6.1c-3.33.62-6.66,1.26-10.6,2a1.34,1.34,0,0,0-.83,2.1l9.08,12.59a2.42,2.42,0,0,0,2.41.95c6.15-1.17,11.82-2.23,17.47-3.35,4.11-.81,7.64,0,8.6,3.68s-2.08,5.59-6.12,6.33c-3.86.7-7.71,1.45-12.14,2.3a1.74,1.74,0,0,0-1.1,2.69c2.85,4.07,5.57,7.94,8.25,11.84,3.78,5.51,7.35,11.13,11.29,16.56a23.68,23.68,0,0,0,10.53,7.88,30.35,30.35,0,0,0,9.55,2.05,29.21,29.21,0,0,0,10.73-1.94C341.74,447.72,341.85,446.48,341.12,444.68Z" style="fill:url(#Gradiente_sem_nome_47-16)"/><path d="M316.55,264.06v0c-.58-2.2-3.4-3.59-6.49-3.2l-9.3,1.19a2.52,2.52,0,0,0-2.13,3.15L330.8,387.65c2.53-14.23,4.9-27.63,7.34-41.41Q327.34,305.16,316.55,264.06Z" style="fill:url(#Gradiente_sem_nome_47-17)"/><path d="M428.47,254a6.06,6.06,0,0,0,.76-.39c2.66-1.59,1.86-5.13-1.29-5.84h-.05c-2.81-.62-5.57-1.48-8.44-1.89-17-2.42-29.14-1.5-43.26,7.38L370,257.61c-.66.47-1.27,1-1.87,1.5-.31.26-.61.52-.93.77-11.39,9.27-17.71,22-20.06,35.31l-9,51.05c-2.44,13.78-4.81,27.18-7.34,41.41-.61,3.5-1.24,7-1.88,10.66,3.84,14.61,7.75,29.46,11.77,44.77a12.15,12.15,0,0,0,.43,1.6c.73,1.8.62,3-.33,3.92a21.07,21.07,0,0,0,10.4-8.47c3.48-5.65,6.58-11.47,9.89-17.2,2.4-4.15,4.86-8.27,7.42-12.62a1.5,1.5,0,0,0-1.1-2.25c-4.66-.61-8.68-1.14-12.7-1.62s-7.28-2.11-6.63-5.94,4.1-4.75,8.27-4.19c5.73.78,11.48,1.49,17.72,2.29a2.39,2.39,0,0,0,2.32-1.1l7.82-12.82a1.56,1.56,0,0,0-1.13-2.36c-3.86-.5-7.15-.93-10.44-1.34-3.9-.48-6.6-2.05-5.91-5.75s3.91-4.57,7.7-4.16c5.17.57,10.32,1.28,15.74,2a2.59,2.59,0,0,0,2.49-1.13l8.45-12.75a1.3,1.3,0,0,0-1-2c-3.74-.35-6.94-.41-9.57-1.48-1.68-.68-2.82-2.33-4-3.94a2.13,2.13,0,0,1,.49-3c1.74-1.22,3.47-2.52,5.3-2.63,4.17-.26,8.43,1,12.69,1.37,1.69.14,4.31,0,5.09-.93,7-8.12,13.71-16.42,20.09-24.19a1.5,1.5,0,0,0-.46-2.28c-4.72-2.48-9.79-4.59-13.57-7.81C396.71,295.68,403.51,264.37,428.47,254Z" style="fill:url(#Gradiente_sem_nome_47-18)"/></svg>