<svg id="Camada_1" data-name="Camada 1" xmlns="http://www.w3.org/2000/svg" xmlns:xlink="http://www.w3.org/1999/xlink" viewBox="0 0 1500 1500"><defs><linearGradient id="Gradiente_sem_nome_47" x1="1234.75" y1="1244.16" x2="458.34" y2="-100.62" gradientUnits="userSpaceOnUse"><stop offset="0" stop-color="#8b93c9" stop-opacity="0.5"/><stop offset="0.66" stop-color="#604c8b"/><stop offset="1" stop-color="#282250"/></linearGradient><linearGradient id="Gradiente_sem_nome_47-2" x1="831.33" y1="1226.9" x2="254.03" y2="227" xlink:href="#Gradiente_sem_nome_47"/><linearGradient id="Gradiente_sem_nome_47-3" x1="877.33" y1="866.8" x2="567.23" y2="329.68" xlink:href="#Gradiente_sem_nome_47"/><linearGradient id="Gradiente_sem_nome_47-4" x1="1204.22" y1="1013.14" x2="824.63" y2="355.67" xlink:href="#Gradiente_sem_nome_47"/></defs><path d="M1268.6,53c-55-18.71-108.84-28.2-159.88-28.2C990.28,24.77,884.1,75.67,801.65,172c-8.36,9.76-16.07,19.54-23.16,29.14a8.19,8.19,0,0,1-13.35-.3c-8.77-13.07-18.57-26.53-29.47-40C650.42,55.62,539.28,0,414.26,0c-52.12,0-107.13,9.71-163.5,28.87C128.51,70.42,46.81,154.35,14.49,271.57-28.89,428.9,27,629.21,156.94,781.86,320.39,973.92,725.53,1473,729.61,1478a59.47,59.47,0,0,0,46.18,22c.85,0,1.7,0,2.56,0a60,60,0,0,0,45.33-24.15l521-695.88c105.72-130.21,190.13-337.81,140.92-509.18C1455.63,166.33,1380.59,91,1268.6,53Zm29.19,690.35L784.47,1428.93a11.28,11.28,0,0,1-17.79.37c-61.11-75.22-413.31-508.41-564.44-686C15.36,523.72-13.64,181.56,269.91,85.18c52.94-18,100.94-25.71,144.35-25.7,214.73,0,316.78,188.78,346,255a10.37,10.37,0,0,0,18.85.35c29.55-61.73,128.73-230.56,329.64-230.56,42.3,0,89.12,7.48,140.74,25C1533,205.66,1458.9,545.68,1297.79,743.32Z" style="fill:url(#Gradiente_sem_nome_47)"/><path d="M821.57,1213.92a66.59,66.59,0,0,1-2.15-8c-20.11-76.55-39.64-150.81-58.86-223.88-52.14-198.19-102-387.43-154.83-588.21-23.79-90.4-107.58-160.55-214.09-179.22a98.11,98.11,0,0,0-40.31,1.23c-49.8,12.3-98.83,27.07-148,41.17-15.48,4.52-18.09,22.63-4,29.73a29,29,0,0,0,3.72,1.58c128.79,44.42,175.75,198.53,85.27,287.28-17,16.65-40.41,28.49-62.31,41.75a9.26,9.26,0,0,0-2,14.32c34.6,36.38,71.08,75.18,108.81,113.07,4.28,4.3,17.39,4.29,25.8,3.11,21.08-3,41.8-10.69,62.68-10.68,9.5,0,21.06,6,30,11.88A10.41,10.41,0,0,1,454.55,763c-4.71,8.23-12.17,17.44-20.25,21.35-12.26,5.94-27.56,7.31-45.3,10a7.43,7.43,0,0,0-4.69,11.9l46.54,59.87a13,13,0,0,0,12.72,4.75c26.77-5.16,52.15-10.3,77.7-14.67,18.73-3.19,35.24.54,40.14,18.43,5,18.21-7.8,26.86-27.07,30.46-16.68,3.1-33.33,6.32-53,10.08a6.69,6.69,0,0,0-4.15,10.47l45.38,63a12,12,0,0,0,12.05,4.74c30.78-5.85,59.11-11.13,87.35-16.71,20.57-4.07,38.23-.16,43,18.39,4.85,18.89-10.35,27.93-30.58,31.62-19.29,3.51-38.52,7.25-60.7,11.52a8.66,8.66,0,0,0-5.47,13.46c14.21,20.33,27.83,39.7,41.21,59.19,18.91,27.55,36.77,55.65,56.46,82.79,12.76,17.6,31.39,30.93,52.68,39.39a150,150,0,0,0,47.71,10.26,145.71,145.71,0,0,0,53.65-9.7C824.64,1229.09,825.23,1222.91,821.57,1213.92Z" style="fill:url(#Gradiente_sem_nome_47-2)"/><path d="M698.71,310.8c0-.06,0-.12,0-.18-2.9-11-17-17.95-32.43-16l-46.54,5.9a12.66,12.66,0,0,0-10.65,15.77L770,928.77c12.6-71.19,24.47-138.15,36.68-207.06Q752.69,516.26,698.71,310.8Z" style="fill:url(#Gradiente_sem_nome_47-3)"/><path d="M1258.3,260.25a29.65,29.65,0,0,0,3.81-1.94c13.29-8,9.29-25.66-6.42-29.21l-.28-.06c-14.06-3.11-27.84-7.37-42.18-9.41-85.17-12.14-145.72-7.53-216.29,36.85l-30.75,22.06c-3.3,2.34-6.38,4.9-9.39,7.5-1.52,1.31-3,2.59-4.61,3.85-57,46.37-88.55,110.08-100.31,176.55-16.64,94.05-31.16,176-45.21,255.27C794.46,790.62,782.59,857.58,770,928.77c-3.1,17.48-6.23,35.18-9.43,53.26,19.22,73.07,38.75,147.33,58.86,223.88a66.59,66.59,0,0,0,2.15,8c3.66,9,3.07,15.17-1.67,19.58,21.58-8.53,39.9-22.64,52-42.35,17.38-28.26,32.86-57.36,49.43-86,12-20.74,24.28-41.38,37.1-63.09a7.52,7.52,0,0,0-5.48-11.28c-23.34-3-43.41-5.68-63.52-8.09-20.49-2.45-36.4-10.55-33.14-29.69,3.21-18.79,20.5-23.76,41.36-20.94,28.66,3.87,57.37,7.43,88.59,11.41A11.77,11.77,0,0,0,997.84,978l39.15-64.1a7.83,7.83,0,0,0-5.68-11.81c-19.29-2.48-35.73-4.62-52.19-6.66-19.52-2.42-33-10.28-29.54-28.75,3.4-18.14,19.56-22.86,38.51-20.8,25.84,2.82,51.56,6.4,78.68,9.94a12.9,12.9,0,0,0,12.42-5.64l42.28-63.77a6.5,6.5,0,0,0-4.77-10c-18.7-1.76-34.68-2.05-47.83-7.41-8.4-3.42-14.1-11.66-19.92-19.68a10.63,10.63,0,0,1,2.48-14.94c8.69-6.11,17.35-12.63,26.51-13.19,20.82-1.27,42.13,5.19,63.41,6.88,8.48.67,21.56-.11,25.47-4.67,35-40.62,68.55-82.09,100.43-120.93A7.53,7.53,0,0,0,1265,591c-23.58-12.39-48.93-23-67.84-39C1099.49,468.89,1133.52,312.33,1258.3,260.25Z" style="fill:url(#Gradiente_sem_nome_47-4)"/></svg>